<?xml version="1.0" standalone="no"?>
<!DOCTYPE svg PUBLIC "-//W3C//DTD SVG 20010904//EN"
 "http://www.w3.org/TR/2001/REC-SVG-20010904/DTD/svg10.dtd">
<svg version="1.0" xmlns="http://www.w3.org/2000/svg"
 width="3000.000000pt" height="3000.000000pt" viewBox="0 0 3000.000000 3000.000000"
 preserveAspectRatio="xMidYMid meet">
<metadata>
Created by potrace 1.11, written by Peter Selinger 2001-2013
</metadata>
<g transform="translate(0.000000,3000.000000) scale(0.100000,-0.100000)"
fill="#000000" stroke="none">
<path d="M0 15000 l0 -15000 15000 0 15000 0 0 15000 0 15000 -15000 0 -15000
0 0 -15000z m9675 9399 c164 -29 331 -123 458 -259 58 -61 87 -103 126 -182
73 -148 86 -204 86 -378 0 -173 -13 -230 -85 -375 -128 -258 -376 -425 -675
-453 l-75 -7 -665 -1124 c-365 -618 -672 -1147 -682 -1175 -13 -38 -18 -81
-18 -171 0 -116 1 -123 33 -187 20 -40 50 -82 76 -105 47 -41 400 -255 424
-257 8 -1 94 134 218 344 112 190 207 346 212 347 6 3 431 -1637 435 -1681 2
-18 -74 -39 -788 -223 l-790 -203 -42 22 -43 21 19 31 c111 184 350 594 353
604 2 7 -75 58 -182 121 -225 133 -314 198 -431 316 -383 386 -477 840 -270
1312 46 106 25 71 800 1380 l622 1052 -35 89 c-54 134 -69 225 -63 367 6 141
27 219 94 345 106 201 249 324 464 397 140 48 274 58 424 32z m3017 -1191
c-87 -144 -402 -681 -400 -683 2 -1 86 -51 188 -111 229 -135 320 -202 435
-319 153 -156 262 -327 318 -500 43 -133 52 -192 51 -345 -1 -129 -4 -158 -32
-264 -20 -76 -52 -162 -90 -240 -32 -66 -356 -623 -719 -1236 -363 -613 -666
-1126 -672 -1139 -11 -20 -9 -32 18 -90 55 -119 66 -180 65 -351 0 -140 -3
-163 -27 -235 -71 -214 -231 -402 -424 -499 -28 -14 -91 -38 -140 -52 -76 -23
-107 -27 -228 -28 -154 -1 -227 13 -341 64 -200 90 -375 277 -445 476 -50 140
-63 320 -35 455 45 209 181 413 351 524 122 80 293 135 418 135 l54 0 163 278
c90 152 387 653 659 1112 272 459 505 860 517 890 49 118 48 285 -1 387 -40
81 -94 125 -304 250 -108 64 -198 117 -202 119 -3 1 -99 -157 -214 -351 -115
-195 -212 -351 -216 -347 -6 8 -440 1694 -436 1697 6 5 1674 433 1690 434 18
1 18 -1 -1 -31z m1338 -7373 c5 -3 10 -40 10 -83 l0 -76 33 54 c26 44 43 60
91 85 52 26 70 30 136 29 58 0 88 -6 123 -23 145 -70 183 -264 76 -385 -52
-58 -111 -81 -207 -80 -100 1 -174 39 -217 109 l-30 50 -95 -6 c-102 -6 -141
-18 -178 -52 -38 -35 -53 -75 -59 -153 l-6 -74 157 0 156 0 0 -160 0 -160
-155 0 -155 0 0 -585 0 -585 -250 0 -250 0 0 585 0 585 -80 0 -80 0 0 160 0
160 80 0 80 0 0 103 c0 269 112 418 365 488 119 33 410 42 455 14z m4675 -14
c87 -39 134 -116 135 -222 0 -156 -122 -261 -284 -244 -84 9 -131 31 -175 81
-79 90 -81 234 -4 324 58 67 127 93 228 84 33 -3 78 -13 100 -23z m-6035
-1051 l0 -1030 -255 0 -254 0 -3 101 -3 102 -55 -79 c-43 -62 -65 -84 -103
-102 -91 -43 -163 -56 -312 -56 -157 0 -191 7 -312 65 -122 58 -207 147 -272
282 -27 56 -55 129 -62 162 -7 33 -15 63 -19 68 -3 4 -12 -16 -19 -45 -17 -77
-83 -204 -138 -270 -166 -198 -450 -296 -753 -259 -117 15 -185 34 -272 77
-127 62 -215 137 -284 242 -40 59 -103 211 -104 248 0 48 -15 29 -37 -48 -37
-127 -86 -211 -178 -304 -66 -66 -97 -89 -175 -128 -149 -73 -225 -89 -415
-89 -186 0 -267 17 -400 83 -149 74 -250 173 -320 317 -119 245 -108 592 26
820 50 85 171 201 254 245 210 110 495 136 722 67 237 -73 409 -240 481 -469
11 -36 22 -74 25 -85 2 -14 7 -5 16 25 93 351 342 544 731 566 179 11 398 -41
528 -125 74 -49 155 -129 203 -204 43 -67 95 -194 105 -258 l7 -43 23 85 c72
272 230 442 484 520 131 41 369 27 494 -28 30 -13 50 -35 87 -93 l49 -75 0
373 0 372 255 0 255 0 0 -1030z m4968 653 l2 -193 165 0 165 0 0 -160 0 -160
-166 0 -165 0 3 -377 c3 -347 5 -381 22 -416 27 -55 64 -70 179 -75 l97 -4 0
-153 c0 -122 -3 -154 -14 -158 -41 -16 -234 -29 -346 -24 -175 8 -279 41 -349
109 -87 85 -92 121 -98 651 l-5 447 -98 0 -97 0 12 -55 13 -55 -248 0 -248 0
-13 38 c-27 83 -76 122 -155 122 -39 0 -51 -5 -80 -34 -28 -28 -34 -42 -34
-75 0 -86 83 -136 340 -206 311 -83 443 -199 470 -409 26 -206 -58 -356 -254
-451 -128 -63 -222 -80 -421 -79 -129 0 -176 5 -245 22 -186 48 -329 147 -398
278 -31 60 -66 180 -56 196 3 4 113 8 244 8 l238 0 34 -62 c47 -86 97 -121
182 -126 115 -7 176 31 176 111 0 35 -6 46 -43 81 -50 47 -107 71 -292 120
-156 41 -220 65 -288 110 -71 46 -123 100 -153 161 -27 57 -48 167 -42 222 l4
36 -93 -7 c-168 -12 -265 -69 -322 -190 -50 -106 -53 -135 -58 -543 l-5 -383
-254 0 -254 0 0 750 0 750 255 0 255 0 0 -147 1 -148 55 107 c45 87 64 114
103 142 79 58 143 79 248 80 50 1 95 -2 99 -7 4 -4 7 -67 6 -140 l-1 -132 22
30 c12 17 46 54 75 83 190 185 634 227 887 82 56 -32 123 -92 173 -155 l31
-40 1 118 0 117 115 0 115 0 0 188 c0 104 3 192 7 196 4 3 117 5 252 4 l246
-3 3 -192z m-10622 -164 c32 -6 81 -19 110 -30 47 -18 55 -26 100 -100 l49
-81 3 96 3 96 250 0 250 0 -3 -767 c-4 -767 -4 -768 -27 -843 -68 -225 -224
-383 -446 -453 -256 -81 -629 -67 -838 33 -166 79 -278 234 -303 419 l-7 51
244 -2 243 -3 7 -34 c16 -77 89 -125 212 -141 180 -23 324 37 379 158 22 48
41 206 36 297 l-3 59 -54 -82 c-64 -98 -100 -123 -222 -153 -122 -31 -308 -24
-429 17 -310 104 -470 389 -439 782 20 257 127 462 303 580 163 109 356 143
582 101z m12691 11 c247 -34 416 -160 489 -367 39 -113 61 -103 -225 -103
l-248 0 -6 28 c-9 41 -43 90 -79 113 -48 30 -133 22 -165 -15 -55 -64 -37
-133 47 -184 51 -30 97 -47 335 -117 247 -74 368 -188 400 -377 l6 -38 214 0
214 0 21 -47 c26 -58 62 -98 114 -125 31 -16 54 -19 113 -16 67 3 76 6 105 36
26 25 33 40 33 72 0 86 -80 135 -326 201 -237 63 -350 124 -420 225 -90 131
-92 335 -5 472 110 174 410 279 691 243 168 -22 277 -71 376 -170 36 -36 78
-89 91 -116 26 -50 58 -146 58 -172 0 -11 -46 -13 -247 -11 l-246 3 -14 41
c-21 63 -72 106 -131 112 -62 6 -108 -17 -128 -63 -45 -108 49 -176 351 -254
237 -62 377 -163 431 -311 25 -71 30 -205 9 -276 -54 -189 -222 -304 -500
-344 -205 -29 -456 10 -610 96 -62 34 -165 136 -192 188 l-20 39 -33 -62 c-98
-183 -355 -284 -680 -268 -339 17 -562 160 -634 406 -9 30 -16 65 -16 78 l0
23 245 0 244 0 21 -47 c26 -58 62 -98 114 -125 31 -16 54 -19 113 -16 66 3 76
6 104 35 25 24 32 40 32 71 0 90 -77 138 -325 202 -260 68 -392 151 -456 287
-24 53 -27 69 -27 173 0 147 21 203 106 295 138 147 394 220 656 185z m4477
-20 c329 -87 535 -378 536 -757 0 -56 -3 -108 -6 -117 -5 -14 -61 -16 -526
-16 l-520 0 6 -37 c31 -174 105 -261 237 -279 58 -8 148 11 191 39 38 26 77
81 85 120 l6 27 249 0 250 0 -6 -27 c-14 -63 -97 -210 -150 -269 -144 -160
-378 -244 -641 -231 -432 22 -697 285 -722 718 -26 445 237 782 662 849 88 13
258 4 349 -20z m-9634 -760 l0 -750 -250 0 -250 0 0 750 0 750 250 0 250 0 0
-750z m4280 0 l0 -750 -250 0 -250 0 0 750 0 750 250 0 250 0 0 -750z m3270
245 c5 -438 8 -505 23 -543 25 -65 53 -98 100 -120 138 -66 280 -15 343 123
38 82 44 166 44 618 l0 427 250 0 250 0 0 -750 0 -750 -250 0 -250 0 0 120 c0
66 -3 120 -7 119 -5 0 -35 -43 -68 -96 -56 -89 -64 -97 -121 -124 -93 -45
-191 -62 -310 -56 -212 12 -380 104 -456 252 -51 98 -51 103 -55 713 l-4 572
253 -2 253 -3 5 -500z m-3490 -4870 l0 -785 -145 0 -144 0 -3 87 -3 87 -43
-66 c-37 -56 -51 -69 -100 -91 -195 -87 -441 -50 -577 87 -125 126 -184 333
-155 546 36 264 175 434 400 491 105 27 221 22 325 -13 66 -22 72 -27 110 -83
l40 -60 3 293 2 292 145 0 145 0 0 -785z m-2821 662 c137 -40 227 -115 284
-235 31 -65 32 -71 32 -202 0 -131 -1 -137 -32 -202 -37 -79 -109 -156 -179
-191 -101 -51 -145 -59 -381 -64 l-223 -6 0 -273 0 -274 -150 0 -150 0 0 736
0 736 373 -5 c298 -3 383 -8 426 -20z m6801 -177 l0 -140 115 0 115 0 0 -95 0
-95 -115 0 -116 0 3 -342 c3 -375 3 -375 63 -400 16 -7 56 -13 88 -13 l57 0 0
-96 0 -97 -87 -7 c-172 -15 -289 8 -351 68 -60 58 -64 89 -70 510 l-4 377 -79
0 -79 0 0 95 0 95 80 0 80 0 0 140 0 140 150 0 150 0 0 -140z m-5693 -125
c220 -41 381 -202 429 -427 24 -109 15 -280 -19 -377 -87 -249 -308 -385 -597
-368 -109 7 -180 26 -265 70 -122 65 -223 200 -259 349 -22 89 -22 257 0 346
77 310 362 473 711 407z m2585 0 c210 -44 346 -182 382 -387 l7 -38 -145 0
-145 0 -15 53 c-21 73 -65 130 -121 157 -66 32 -165 26 -224 -13 -95 -63 -137
-191 -128 -386 11 -236 92 -350 247 -351 101 0 194 72 220 170 l11 40 149 0
149 0 -15 -52 c-50 -170 -150 -277 -315 -335 -64 -23 -91 -27 -199 -27 -79 -1
-143 4 -175 13 -185 52 -310 184 -362 381 -23 89 -23 282 1 370 82 302 366
472 678 405z m1148 4 c73 -11 169 -52 217 -93 18 -15 46 -56 64 -91 28 -58 32
-76 40 -202 4 -76 9 -253 9 -393 1 -140 5 -281 9 -312 l7 -58 -143 0 -142 0
-6 33 c-3 17 -8 54 -13 82 l-7 50 -27 -62 c-31 -72 -62 -92 -175 -119 -81 -19
-214 -14 -283 10 -68 24 -139 84 -174 145 -40 72 -49 200 -20 282 23 65 95
146 161 181 99 54 268 88 435 88 l78 0 0 73 c0 129 -44 180 -163 185 -112 5
-166 -33 -192 -135 l-12 -48 -143 -3 -143 -3 6 53 c14 119 104 237 224 293
106 51 252 67 393 44z m1091 1 c72 -14 167 -60 216 -104 41 -37 95 -128 107
-181 4 -16 9 -38 12 -47 5 -17 -6 -18 -144 -18 l-149 0 -11 39 c-24 79 -82
123 -162 123 -54 0 -104 -22 -121 -55 -7 -12 -12 -41 -12 -65 0 -77 56 -116
248 -171 280 -80 386 -189 373 -380 -9 -122 -69 -208 -184 -263 -160 -75 -403
-76 -560 -2 -107 51 -187 153 -213 272 l-9 42 147 0 147 0 13 -36 c18 -50 75
-111 118 -125 45 -15 121 -15 167 1 50 16 76 53 76 106 0 81 -66 130 -245 179
-191 53 -300 119 -348 209 -32 60 -32 212 0 276 30 61 95 124 158 155 99 49
257 67 376 45z"/>
<path d="M9395 23967 c-117 -39 -200 -108 -250 -210 -119 -242 -5 -512 248
-589 290 -88 578 162 528 459 -24 143 -109 255 -239 316 -57 27 -80 32 -157
34 -55 2 -105 -2 -130 -10z"/>
<path d="M10950 18353 c-97 -19 -202 -89 -261 -177 -50 -75 -70 -142 -70 -237
0 -219 165 -394 382 -407 138 -8 241 31 330 125 121 128 150 311 74 468 -80
166 -272 262 -455 228z"/>
<path d="M8535 14909 c-117 -58 -175 -196 -175 -419 0 -179 40 -309 114 -378
78 -72 190 -87 288 -39 96 48 151 155 167 322 9 101 -1 255 -20 314 -33 102
-91 176 -161 205 -54 23 -163 20 -213 -5z"/>
<path d="M10111 14904 c-92 -46 -142 -141 -163 -310 -14 -115 0 -272 33 -358
47 -127 130 -190 248 -190 177 1 272 130 288 389 15 252 -62 443 -196 484 -68
20 -151 14 -210 -15z"/>
<path d="M11736 14910 c-132 -52 -206 -204 -206 -424 0 -164 33 -266 112 -351
60 -66 116 -90 211 -89 138 2 224 65 278 201 21 53 23 75 24 238 0 206 -11
258 -74 341 -53 71 -123 104 -221 103 -50 0 -92 -6 -124 -19z"/>
<path d="M6843 14914 c-106 -38 -176 -145 -196 -304 -28 -222 42 -410 179
-480 42 -21 63 -25 139 -25 78 1 97 4 141 27 96 50 145 140 166 302 21 169
-16 331 -95 415 -53 56 -119 81 -212 80 -44 0 -99 -7 -122 -15z"/>
<path d="M23831 14908 c-63 -31 -120 -116 -137 -203 l-6 -35 252 0 252 0 -7
38 c-17 94 -70 170 -140 203 -57 27 -157 25 -214 -3z"/>
<path d="M17937 10016 c-126 -47 -197 -179 -197 -370 0 -194 80 -341 205 -376
56 -16 159 -9 206 14 119 57 180 210 166 416 -15 215 -102 321 -272 327 -42 2
-85 -2 -108 -11z"/>
<path d="M15290 10090 l0 -233 178 5 c208 5 252 19 300 91 25 37 27 49 27 137
0 88 -2 100 -27 137 -48 72 -92 86 -300 91 l-178 5 0 -233z"/>
<path d="M16655 10014 c-123 -45 -195 -210 -182 -414 9 -146 54 -240 144 -304
49 -34 146 -46 218 -26 103 29 175 136 196 290 30 218 -53 417 -189 458 -52
16 -138 14 -187 -4z"/>
<path d="M20450 9579 c-120 -23 -186 -95 -177 -192 7 -81 69 -127 169 -127 66
0 124 26 165 73 40 45 53 91 53 185 l0 72 -82 -1 c-46 -1 -103 -5 -128 -10z"/>
</g>
</svg>
